<svg width="1185" height="1236" viewBox="0 0 1185 1236" fill="none" xmlns="http://www.w3.org/2000/svg">
<rect width="1185" height="1236" fill="white"/>
<path d="M214.754 784.003C215.718 779.298 225.109 763.258 227.858 758.058L259.997 697.498L401.23 431.713L441.915 355.157C445.81 347.905 449.623 340.581 453.461 333.298C455.991 328.497 460.747 320.638 462.571 315.69C476.534 340.791 490.321 367.849 503.865 393.291L588.814 552.718L619.828 611.302C632.167 634.164 636.086 645.123 654.25 664.961C667.601 679.452 683.504 691.366 701.162 700.108C705.272 702.101 716.183 706.15 718.83 707.652C726.227 710.033 733.658 712.19 741.302 713.595C742.537 713.821 743.806 713.977 745.01 714.332C787.857 720.753 829.579 711.585 864.935 685.952C872.679 680.34 879.694 674.344 886.257 667.399C890.099 663.432 895.315 657.306 899.3 653.941C902.453 661.524 908.64 672.007 912.611 679.308L932.614 716.715C913.201 735.699 892.444 750.78 867.766 762.241C865.54 763.272 856.667 767.415 854.584 767.832C850.42 769.587 845.919 771.099 841.616 772.497C831.567 777.028 799.121 782.664 788.046 783.056C783.435 782.967 778.027 783.527 773.327 783.477C765.713 783.398 757.692 783.279 750.122 782.63C747.985 782.744 740.4 781.524 738.169 781.192C725.22 779.249 712.961 776.309 700.508 772.229C654.748 757.149 614.909 728.019 586.659 688.985C574.665 672.507 563.844 648.304 553.439 630.402C553.094 629.807 552.876 629.746 552.28 629.466C550.199 631.235 549.506 636.599 547.779 637.838C546.16 641.598 542.727 647.326 540.683 651.124C537.845 656.397 534.027 664.802 530.685 669.575C529.171 672.392 527.111 676.003 525.81 678.831C525.509 677.807 525.556 676.255 525.534 675.142L526.191 673.367C521.771 669.432 511.654 645.564 506.916 638.589C501.875 631.166 497.188 617.721 490.706 610.589C489.721 609.505 487.26 610.012 486.042 610.15L511.108 562.527L512.911 559.293L514.142 556.154L479.433 490.979C474.64 481.989 469.979 472.936 464.99 464.052C464.204 462.653 463.485 461.241 462.857 459.762C419.739 539.666 377.041 619.796 334.763 700.148C320.076 727.904 305.25 756.482 290.217 784.023C287.068 783.314 265.819 783.492 261.151 783.606C246.653 783.958 228.913 782.833 214.754 784.003Z" fill="#3F495B"/>
<path d="M514 557C515.925 559.529 517.267 562.94 518.824 565.152C521.952 569.598 523 572.5 527.5 578.5C527.924 581.722 528.206 581.5 529 583C533.5 591.5 533 590.5 536.4 597.003C537.082 602.181 538.316 601.408 540.337 606.094C543.356 613.096 548.82 622.432 550.938 629.422C551.496 629.916 551.527 630.071 552.238 630.173C550.156 631.941 549.463 637.306 547.737 638.545C546.118 642.304 542.685 648.033 540.641 651.831C537.803 657.104 533.985 665.508 530.643 670.282C529.129 673.098 527.068 676.709 525.767 679.538C525.467 678.513 525.514 676.961 525.492 675.849L526.149 674.074C521.729 670.139 511.612 646.271 506.874 639.295C501.833 631.872 497.145 618.428 490.664 611.296C489.679 610.212 487.218 610.718 486 610.857L511.066 563.233L514 557Z" fill="#B21458"/>
<path d="M742.065 332.161C753.577 329.369 790.658 329.823 802.234 332.565C805.074 332.855 811.103 333.36 813.675 334.239C817.468 334.918 820.368 335.667 824.096 336.672C831.82 338.019 857.097 345.979 863.458 349.765C865.956 350.997 868.475 352.191 871.013 353.347C874.007 354.437 880.363 357.762 883.045 359.585C886.406 361.46 890.853 363.853 893.941 366.158C894.695 366.674 896.529 367.824 897.03 368.436C901.372 370.934 904.619 373.374 908.506 376.503C911.356 378.117 918.069 383.408 920.082 385.87C923.909 388.532 926.923 390.972 929.758 394.791C925.113 403.049 920.86 411.667 916.225 419.95C914.167 423.628 911.168 430.414 908.793 433.615L906.796 437.533C905.06 441.091 898.665 454.329 896.063 456.263C895.696 456.151 877.81 438.353 875.787 436.516C873.249 434.947 863.423 427.055 860.265 424.689C857.39 423.275 851.967 419.649 849.061 417.82C847.47 417.162 845.641 416.116 844.104 415.324C823.714 404.794 801.589 398.898 778.676 397.815C767.864 397.303 757.518 398.234 746.72 399.225C742.645 400.117 736.925 401.561 732.939 402.187C729.394 403.131 726.033 404.292 722.672 405.204C718.825 406.578 714.958 407.954 711.131 409.383C709.302 410.067 707.874 410.931 705.956 411.57C701.881 413.546 697.82 415.553 693.775 417.591L693.433 417.801C689.621 420.237 681.679 424.852 678.611 427.215C676.105 429.493 672.14 432.43 669.364 434.528C665.852 437.431 663.117 439.818 659.9 443.047C658.682 444.27 655.203 447.958 654.061 448.877C645.756 456.949 638.938 468.672 632.461 478.222C631.144 480.164 631.954 483.337 629.533 483.46C628.644 480.022 626.385 477.243 624.657 474.004L613.552 453.096L600.573 428.806C598.704 425.297 596.106 419.731 593.985 416.675L593.695 416.264C595.578 412.647 607.133 400.269 610.218 397.157C630.927 376.266 656.503 359.081 683.617 347.676C691.455 344.379 701.281 341.35 709.505 338.645C711.701 337.755 714.691 337.356 717.05 336.726C725.736 334.409 733.167 333.269 742.065 332.161Z" fill="#FD1F1F"/>
<path d="M486.042 610.15C487.26 610.012 489.721 609.505 490.706 610.59C497.188 617.721 501.875 631.166 506.917 638.589C511.654 645.564 521.772 669.432 526.192 673.367L525.534 675.142C525.557 676.255 525.509 677.807 525.81 678.831C524.496 682.359 520.566 689.156 518.656 692.676C515.887 698.539 512.087 705.015 509.017 710.865C507.018 714.672 503.126 722.795 500.76 725.837C497.409 732.649 493.936 739.401 490.341 746.088C489.425 747.798 487.162 752.278 486.119 753.722C485.505 755.024 482.04 761.924 481.343 762.775C479.047 766.984 472.02 779.532 470.667 783.473C444.862 783.557 419.11 783.423 393.32 783.924C394.902 781.128 396.513 778.347 398.155 775.585C398.402 774.847 399.146 773.821 399.604 773.122C401.635 769.314 403.75 764.654 406.007 761.149C406.877 758.604 411.594 749.585 413.151 747.201C414.65 743.703 418.601 737.112 420.545 733.513L434.718 706.803L464.131 651.366C467.649 644.86 470.937 637.668 474.695 631.412C478.393 624.198 482.229 617.3 486.042 610.15Z" fill="#FD1F1F"/>
<path d="M109.8 936V933C112.333 932.6 114.267 932.133 115.6 931.6C117 931.067 118.133 930.133 119 928.8C119.867 927.4 120.867 925.3 122 922.5L145.3 865.5H148.6L172 923.9C173.2 926.967 174.567 929.167 176.1 930.5C177.633 931.833 180 932.667 183.2 933V936H154.7V933L158.8 932.5C160.933 932.233 162.267 931.467 162.8 930.2C163.4 928.867 163.2 926.967 162.2 924.5L142.6 874.9H145.7L126.8 923.3C125.533 926.5 125.233 928.8 125.9 930.2C126.567 931.6 128.167 932.433 130.7 932.7L133.6 933V936H109.8ZM130.9 908.9V904.9H161.1V908.9H130.9ZM184.684 936V933L187.684 932.5C189.684 932.167 191.018 931.633 191.684 930.9C192.351 930.1 192.684 928.667 192.684 926.6V896.8C192.684 894.667 192.218 893.167 191.284 892.3C190.351 891.367 188.218 890.7 184.884 890.3V887.8L199.984 883.4H201.384V890.7H201.984C205.184 887.9 208.151 885.933 210.884 884.8C213.618 883.6 216.818 883 220.484 883C225.218 883 228.918 884.2 231.584 886.6C234.318 888.933 235.684 892.267 235.684 896.6V926.6C235.684 928.667 236.018 930.1 236.684 930.9C237.351 931.633 238.684 932.167 240.684 932.5L243.684 933V936H218.684V933L221.684 932.5C223.684 932.167 225.018 931.633 225.684 930.9C226.351 930.1 226.684 928.667 226.684 926.6V899.6C226.684 897.133 226.251 895.133 225.384 893.6C224.518 892.067 223.218 890.933 221.484 890.2C219.818 889.4 217.651 889 214.984 889C212.384 889 210.051 889.467 207.984 890.4C205.918 891.267 203.818 892.667 201.684 894.6V926.6C201.684 928.667 202.018 930.1 202.684 930.9C203.351 931.633 204.684 932.167 206.684 932.5L209.684 933V936H184.684ZM247.087 936V933L250.087 932.5C252.087 932.167 253.42 931.633 254.087 930.9C254.753 930.1 255.087 928.667 255.087 926.6V896.8C255.087 894.667 254.62 893.167 253.687 892.3C252.753 891.367 250.62 890.7 247.287 890.3V887.8L262.387 883.4H263.787V890.7H264.387C267.587 887.9 270.553 885.933 273.287 884.8C276.02 883.6 279.22 883 282.887 883C287.62 883 291.32 884.2 293.987 886.6C296.72 888.933 298.087 892.267 298.087 896.6V926.6C298.087 928.667 298.42 930.1 299.087 930.9C299.753 931.633 301.087 932.167 303.087 932.5L306.087 933V936H281.087V933L284.087 932.5C286.087 932.167 287.42 931.633 288.087 930.9C288.753 930.1 289.087 928.667 289.087 926.6V899.6C289.087 897.133 288.653 895.133 287.787 893.6C286.92 892.067 285.62 890.933 283.887 890.2C282.22 889.4 280.053 889 277.387 889C274.787 889 272.453 889.467 270.387 890.4C268.32 891.267 266.22 892.667 264.087 894.6V926.6C264.087 928.667 264.42 930.1 265.087 930.9C265.753 931.633 267.087 932.167 269.087 932.5L272.087 933V936H247.087ZM322.889 937C319.889 937 317.522 936.533 315.789 935.6C314.122 934.6 312.922 933.367 312.189 931.9C311.522 930.367 311.189 928.833 311.189 927.3C311.189 925.033 311.989 922.767 313.589 920.5C315.256 918.167 317.956 915.833 321.689 913.5C325.489 911.167 330.589 908.867 336.989 906.6L339.489 905.7L339.789 895.8C339.856 893.333 339.089 891.3 337.489 889.7C335.889 888.033 333.656 887.2 330.789 887.2C328.522 887.2 326.522 887.967 324.789 889.5C323.056 891.033 321.822 893.433 321.089 896.7C320.956 897.367 320.256 898 318.989 898.6C317.789 899.133 316.189 899.4 314.189 899.4C313.056 899.4 312.189 899.267 311.589 899C310.989 898.733 310.822 898.133 311.089 897.2C312.156 894.6 313.922 892.233 316.389 890.1C318.856 887.967 321.656 886.267 324.789 885C327.922 883.667 331.022 883 334.089 883C338.422 883 341.956 884.033 344.689 886.1C347.489 888.167 348.822 891.067 348.689 894.8L347.689 925.3C347.622 927.9 348.256 929.567 349.589 930.3C350.989 931.033 353.622 931.533 357.489 931.8V934.1L353.989 935C351.856 935.667 350.156 936.1 348.889 936.3C347.689 936.567 346.756 936.7 346.089 936.7C344.289 936.7 342.922 936.3 341.989 935.5C341.122 934.7 340.489 933.767 340.089 932.7C339.756 931.633 339.522 930.767 339.389 930.1H338.589C335.722 932.9 333.022 934.767 330.489 935.7C328.022 936.567 325.489 937 322.889 937ZM328.589 930.4C330.989 930.4 332.956 930.033 334.489 929.3C336.089 928.5 337.522 927.667 338.789 926.8L339.389 909.1L338.589 909.4C333.789 911.2 330.122 912.967 327.589 914.7C325.056 916.433 323.322 918.1 322.389 919.7C321.522 921.3 321.089 922.767 321.089 924.1C321.089 928.3 323.589 930.4 328.589 930.4ZM359.782 936V933L362.782 932.5C364.782 932.167 366.115 931.633 366.782 930.9C367.449 930.1 367.782 928.667 367.782 926.6V896.8C367.782 894.667 367.315 893.167 366.382 892.3C365.449 891.367 363.315 890.7 359.982 890.3V887.8L375.382 883.4H376.782V926.6C376.782 928.667 377.115 930.1 377.782 930.9C378.449 931.633 379.782 932.167 381.782 932.5L384.782 933V936H359.782ZM371.282 875.7C369.615 875.7 368.215 875.167 367.082 874.1C365.949 872.967 365.382 871.533 365.382 869.8C365.382 868.067 365.949 866.667 367.082 865.6C368.215 864.533 369.615 864 371.282 864C372.882 864 374.249 864.533 375.382 865.6C376.515 866.667 377.082 868.067 377.082 869.8C377.082 871.533 376.515 872.967 375.382 874.1C374.249 875.167 372.882 875.7 371.282 875.7Z" fill="#3F495B"/>
<path d="M449.366 937C441.832 937 435.266 935.5 429.666 932.5C424.066 929.433 419.732 925.267 416.666 920C413.666 914.733 412.166 908.733 412.166 902C412.166 896.933 413.066 892.167 414.866 887.7C416.732 883.233 419.366 879.3 422.766 875.9C426.232 872.5 430.366 869.833 435.166 867.9C439.966 865.967 445.299 865 451.166 865C455.432 865 459.432 865.433 463.166 866.3C466.966 867.1 470.966 868.533 475.166 870.6V884H472.166C470.899 878.867 468.166 875.133 463.966 872.8C459.832 870.4 455.032 869.2 449.566 869.2C443.766 869.2 438.832 870.533 434.766 873.2C430.699 875.867 427.599 879.467 425.466 884C423.332 888.533 422.266 893.667 422.266 899.4C422.266 903.467 422.866 907.5 424.066 911.5C425.332 915.433 427.166 919.033 429.566 922.3C431.966 925.5 434.932 928.067 438.466 930C441.999 931.867 446.099 932.8 450.766 932.8C454.099 932.8 457.032 932.433 459.566 931.7C462.099 930.967 464.299 929.4 466.166 927C468.099 924.533 469.766 920.833 471.166 915.9H474.166V931.8C469.432 933.667 464.999 935 460.866 935.8C456.732 936.6 452.899 937 449.366 937ZM509.764 937C504.431 937 499.731 935.867 495.664 933.6C491.597 931.333 488.431 928.167 486.164 924.1C483.897 920.033 482.764 915.333 482.764 910C482.764 904.933 483.897 900.367 486.164 896.3C488.431 892.233 491.564 889 495.564 886.6C499.631 884.2 504.364 883 509.764 883C515.164 883 519.897 884.133 523.964 886.4C528.031 888.667 531.197 891.833 533.464 895.9C535.731 899.9 536.864 904.567 536.864 909.9C536.864 914.967 535.731 919.567 533.464 923.7C531.197 927.767 528.031 931 523.964 933.4C519.964 935.8 515.231 937 509.764 937ZM511.364 933.1C515.897 933.1 519.664 931.4 522.664 928C525.664 924.6 527.164 919.467 527.164 912.6C527.164 908.067 526.431 903.867 524.964 900C523.564 896.067 521.464 892.9 518.664 890.5C515.864 888.1 512.397 886.9 508.264 886.9C503.731 886.9 499.964 888.6 496.964 892C493.964 895.4 492.464 900.567 492.464 907.5C492.464 911.967 493.164 916.167 494.564 920.1C496.031 923.967 498.164 927.1 500.964 929.5C503.764 931.9 507.231 933.1 511.364 933.1ZM542.692 936V933L545.692 932.5C547.692 932.167 549.026 931.633 549.692 930.9C550.359 930.1 550.692 928.667 550.692 926.6V896.8C550.692 894.667 550.226 893.167 549.292 892.3C548.359 891.367 546.226 890.7 542.892 890.3V887.8L557.992 883.4H559.392V890.7H559.992C563.192 887.9 566.159 885.933 568.892 884.8C571.626 883.6 574.826 883 578.492 883C583.226 883 586.926 884.2 589.592 886.6C592.326 888.933 593.692 892.267 593.692 896.6V926.6C593.692 928.667 594.026 930.1 594.692 930.9C595.359 931.633 596.692 932.167 598.692 932.5L601.692 933V936H576.692V933L579.692 932.5C581.692 932.167 583.026 931.633 583.692 930.9C584.359 930.1 584.692 928.667 584.692 926.6V899.6C584.692 897.133 584.259 895.133 583.392 893.6C582.526 892.067 581.226 890.933 579.492 890.2C577.826 889.4 575.659 889 572.992 889C570.392 889 568.059 889.467 565.992 890.4C563.926 891.267 561.826 892.667 559.692 894.6V926.6C559.692 928.667 560.026 930.1 560.692 930.9C561.359 931.633 562.692 932.167 564.692 932.5L567.692 933V936H542.692ZM622.795 937C620.261 937 617.561 936.7 614.695 936.1C611.895 935.5 609.595 934.7 607.795 933.7V920.2H610.695C611.428 924.867 613.028 928.233 615.495 930.3C618.028 932.3 620.895 933.3 624.095 933.3C627.161 933.3 629.561 932.5 631.295 930.9C633.028 929.3 633.895 927.2 633.895 924.6C633.895 922.267 633.195 920.467 631.795 919.2C630.461 917.867 628.628 916.6 626.295 915.4L619.095 911.6C614.828 909.333 611.995 907.067 610.595 904.8C609.195 902.533 608.495 900.267 608.495 898C608.495 895 609.295 892.4 610.895 890.2C612.561 887.933 614.828 886.167 617.695 884.9C620.561 883.633 623.828 883 627.495 883C629.961 883 632.261 883.267 634.395 883.8C636.595 884.333 638.561 885 640.295 885.8V897.4H637.395C636.995 895.467 636.328 893.7 635.395 892.1C634.461 890.5 633.195 889.2 631.595 888.2C630.061 887.2 628.095 886.7 625.695 886.7C622.695 886.7 620.395 887.467 618.795 889C617.195 890.533 616.395 892.433 616.395 894.7C616.395 896.567 616.961 898.2 618.095 899.6C619.295 901 621.228 902.4 623.895 903.8L630.495 907.2C634.228 909.067 637.028 911 638.895 913C640.828 915 641.795 917.667 641.795 921C641.795 924.467 640.895 927.4 639.095 929.8C637.295 932.133 634.928 933.933 631.995 935.2C629.128 936.4 626.061 937 622.795 937ZM668.061 937C663.928 937 660.628 935.933 658.161 933.8C655.694 931.667 654.461 928.2 654.461 923.4V890H648.161V887C653.361 884.133 657.494 880.333 660.561 875.6H663.561V883.8V886.7V920.7C663.561 923.3 663.994 925.267 664.861 926.6C665.728 927.933 666.894 928.833 668.361 929.3C669.894 929.7 671.528 929.9 673.261 929.9C675.528 929.9 677.494 929.567 679.161 928.9C680.828 928.233 682.394 927.467 683.861 926.6L685.661 928.7C683.594 930.833 681.094 932.767 678.161 934.5C675.228 936.167 671.861 937 668.061 937ZM659.161 890V884H684.461V885.5L681.861 890H659.161ZM687.223 936V933L690.223 932.5C692.29 932.167 693.623 931.633 694.223 930.9C694.89 930.1 695.223 928.667 695.223 926.6V896.8C695.223 894.533 694.69 893 693.623 892.2C692.623 891.333 690.557 890.7 687.423 890.3V887.8L702.523 883.4H703.923V891.4H704.823C706.49 889 708.523 887.033 710.923 885.5C713.39 883.967 716.19 883.2 719.323 883.2C721.723 883.2 723.523 883.7 724.723 884.7C725.99 885.7 726.623 887 726.623 888.6C726.623 889.667 726.19 890.633 725.323 891.5C724.523 892.367 723.557 892.967 722.423 893.3C721.29 893.567 720.19 893.4 719.123 892.8L714.323 890C713.523 889.533 712.557 889.6 711.423 890.2C710.29 890.8 709.157 891.6 708.023 892.6C706.957 893.533 706.057 894.467 705.323 895.4C704.59 896.267 704.223 896.767 704.223 896.9V926.6C704.223 928.667 704.557 930.1 705.223 930.9C705.89 931.633 707.223 932.133 709.223 932.4L714.223 933V936H687.223ZM750.623 937C745.956 937 742.256 935.8 739.523 933.4C736.856 931 735.523 927.667 735.523 923.4V894C735.523 891.8 735.023 890.267 734.023 889.4C733.023 888.533 731.089 887.967 728.223 887.7V885.2L742.823 883.2H744.523V920.4C744.523 922.867 744.923 924.867 745.723 926.4C746.589 927.933 747.889 929.1 749.623 929.9C751.423 930.633 753.656 931 756.323 931C758.856 931 761.123 930.533 763.123 929.6C765.123 928.667 767.089 927.1 769.023 924.9V894C769.023 891.8 768.489 890.267 767.423 889.4C766.423 888.533 764.356 887.967 761.223 887.7V885.2L776.323 883.2H778.023V923.4C778.023 925.667 778.523 927.233 779.523 928.1C780.589 928.9 782.756 929.5 786.023 929.9V932.6L770.723 936.2H769.323V929.3H768.723C765.523 932.1 762.556 934.1 759.823 935.3C757.156 936.433 754.089 937 750.623 937ZM816.163 937C811.296 937 806.963 935.867 803.163 933.6C799.429 931.267 796.496 928.133 794.363 924.2C792.229 920.2 791.163 915.7 791.163 910.7C791.163 905.367 792.329 900.633 794.663 896.5C797.063 892.3 800.329 889 804.463 886.6C808.596 884.2 813.263 883 818.463 883C821.929 883 824.929 883.467 827.463 884.4C830.063 885.333 832.063 886.467 833.463 887.8C834.929 889.133 835.663 890.4 835.663 891.6C835.663 892.667 835.129 893.567 834.063 894.3C832.996 894.967 831.829 895.367 830.563 895.5C829.296 895.633 828.329 895.433 827.663 894.9L821.263 889.2C820.396 888.4 819.529 887.867 818.663 887.6C817.796 887.267 816.696 887.1 815.363 887.1C812.296 887.1 809.629 888 807.363 889.8C805.096 891.6 803.329 894.033 802.063 897.1C800.863 900.1 800.263 903.467 800.263 907.2C800.263 911.6 801.096 915.5 802.763 918.9C804.496 922.3 806.863 925 809.863 927C812.929 928.933 816.396 929.9 820.263 929.9C822.596 929.9 824.896 929.5 827.163 928.7C829.429 927.9 831.796 926.567 834.263 924.7L836.263 926.6C833.129 930.267 829.929 932.933 826.663 934.6C823.396 936.2 819.896 937 816.163 937ZM860.639 937C856.506 937 853.206 935.933 850.739 933.8C848.272 931.667 847.039 928.2 847.039 923.4V890H840.739V887C845.939 884.133 850.072 880.333 853.139 875.6H856.139V883.8V886.7V920.7C856.139 923.3 856.572 925.267 857.439 926.6C858.306 927.933 859.472 928.833 860.939 929.3C862.472 929.7 864.106 929.9 865.839 929.9C868.106 929.9 870.072 929.567 871.739 928.9C873.406 928.233 874.972 927.467 876.439 926.6L878.239 928.7C876.172 930.833 873.672 932.767 870.739 934.5C867.806 936.167 864.439 937 860.639 937ZM851.739 890V884H877.039V885.5L874.439 890H851.739ZM879.802 936V933L882.802 932.5C884.802 932.167 886.135 931.633 886.802 930.9C887.468 930.1 887.802 928.667 887.802 926.6V896.8C887.802 894.667 887.335 893.167 886.402 892.3C885.468 891.367 883.335 890.7 880.002 890.3V887.8L895.402 883.4H896.802V926.6C896.802 928.667 897.135 930.1 897.802 930.9C898.468 931.633 899.802 932.167 901.802 932.5L904.802 933V936H879.802ZM891.302 875.7C889.635 875.7 888.235 875.167 887.102 874.1C885.968 872.967 885.402 871.533 885.402 869.8C885.402 868.067 885.968 866.667 887.102 865.6C888.235 864.533 889.635 864 891.302 864C892.902 864 894.268 864.533 895.402 865.6C896.535 866.667 897.102 868.067 897.102 869.8C897.102 871.533 896.535 872.967 895.402 874.1C894.268 875.167 892.902 875.7 891.302 875.7ZM936.913 937C931.579 937 926.879 935.867 922.813 933.6C918.746 931.333 915.579 928.167 913.313 924.1C911.046 920.033 909.913 915.333 909.913 910C909.913 904.933 911.046 900.367 913.313 896.3C915.579 892.233 918.713 889 922.713 886.6C926.779 884.2 931.513 883 936.913 883C942.313 883 947.046 884.133 951.113 886.4C955.179 888.667 958.346 891.833 960.613 895.9C962.879 899.9 964.013 904.567 964.013 909.9C964.013 914.967 962.879 919.567 960.613 923.7C958.346 927.767 955.179 931 951.113 933.4C947.113 935.8 942.379 937 936.913 937ZM938.513 933.1C943.046 933.1 946.813 931.4 949.813 928C952.813 924.6 954.313 919.467 954.313 912.6C954.313 908.067 953.579 903.867 952.113 900C950.713 896.067 948.613 892.9 945.813 890.5C943.013 888.1 939.546 886.9 935.413 886.9C930.879 886.9 927.113 888.6 924.113 892C921.113 895.4 919.613 900.567 919.613 907.5C919.613 911.967 920.313 916.167 921.713 920.1C923.179 923.967 925.313 927.1 928.113 929.5C930.913 931.9 934.379 933.1 938.513 933.1ZM969.841 936V933L972.841 932.5C974.841 932.167 976.174 931.633 976.841 930.9C977.507 930.1 977.841 928.667 977.841 926.6V896.8C977.841 894.667 977.374 893.167 976.441 892.3C975.507 891.367 973.374 890.7 970.041 890.3V887.8L985.141 883.4H986.541V890.7H987.141C990.341 887.9 993.307 885.933 996.041 884.8C998.774 883.6 1001.97 883 1005.64 883C1010.37 883 1014.07 884.2 1016.74 886.6C1019.47 888.933 1020.84 892.267 1020.84 896.6V926.6C1020.84 928.667 1021.17 930.1 1021.84 930.9C1022.51 931.633 1023.84 932.167 1025.84 932.5L1028.84 933V936H1003.84V933L1006.84 932.5C1008.84 932.167 1010.17 931.633 1010.84 930.9C1011.51 930.1 1011.84 928.667 1011.84 926.6V899.6C1011.84 897.133 1011.41 895.133 1010.54 893.6C1009.67 892.067 1008.37 890.933 1006.64 890.2C1004.97 889.4 1002.81 889 1000.14 889C997.541 889 995.207 889.467 993.141 890.4C991.074 891.267 988.974 892.667 986.841 894.6V926.6C986.841 928.667 987.174 930.1 987.841 930.9C988.507 931.633 989.841 932.167 991.841 932.5L994.841 933V936H969.841ZM1049.94 937C1047.41 937 1044.71 936.7 1041.84 936.1C1039.04 935.5 1036.74 934.7 1034.94 933.7V920.2H1037.84C1038.58 924.867 1040.18 928.233 1042.64 930.3C1045.18 932.3 1048.04 933.3 1051.24 933.3C1054.31 933.3 1056.71 932.5 1058.44 930.9C1060.18 929.3 1061.04 927.2 1061.04 924.6C1061.04 922.267 1060.34 920.467 1058.94 919.2C1057.61 917.867 1055.78 916.6 1053.44 915.4L1046.24 911.6C1041.98 909.333 1039.14 907.067 1037.74 904.8C1036.34 902.533 1035.64 900.267 1035.64 898C1035.64 895 1036.44 892.4 1038.04 890.2C1039.71 887.933 1041.98 886.167 1044.84 884.9C1047.71 883.633 1050.98 883 1054.64 883C1057.11 883 1059.41 883.267 1061.54 883.8C1063.74 884.333 1065.71 885 1067.44 885.8V897.4H1064.54C1064.14 895.467 1063.48 893.7 1062.54 892.1C1061.61 890.5 1060.34 889.2 1058.74 888.2C1057.21 887.2 1055.24 886.7 1052.84 886.7C1049.84 886.7 1047.54 887.467 1045.94 889C1044.34 890.533 1043.54 892.433 1043.54 894.7C1043.54 896.567 1044.11 898.2 1045.24 899.6C1046.44 901 1048.38 902.4 1051.04 903.8L1057.64 907.2C1061.38 909.067 1064.18 911 1066.04 913C1067.98 915 1068.94 917.667 1068.94 921C1068.94 924.467 1068.04 927.4 1066.24 929.8C1064.44 932.133 1062.08 933.933 1059.14 935.2C1056.28 936.4 1053.21 937 1049.94 937Z" fill="#FD1F1F"/>
</svg>
